<svg width="142" height="133" viewBox="0 0 142 133" fill="none" xmlns="http://www.w3.org/2000/svg">
<path d="M141.33 65.68C141.17 56.58 137.56 48.05 131.11 41.64C130.95 41.48 130.82 41.35 130.73 41.29C125.01 35.77 117.61 32.35 109.72 31.58C107.71 22.35 102.57 14.18 95.16 8.43C88.04 2.91 79.55 0 70.61 0C58.13 0 46.63 5.65 39.03 15.52C35.36 20.28 32.77 25.8 31.49 31.61C23.64 32.38 16.26 35.79 10.64 41.25C10.51 41.38 10.35 41.51 10.22 41.63C3.83 48.05 0.19 56.54 0.0299997 65.55C-2.66358e-07 65.81 0 66.03 0 66.28C0 66.53 -2.66358e-07 66.76 0.0299997 66.95C0.19 75.73 3.64 84.1 9.7 90.39C9.86 90.58 10.05 90.77 10.21 90.96C15.96 96.71 23.49 100.25 31.54 100.99C33.52 110.28 38.69 118.49 46.2 124.23C53.26 129.69 61.69 132.6 70.59 132.6C83.07 132.6 94.6 126.92 102.23 117.02C105.87 112.33 108.46 106.8 109.7 101.02C117.78 100.29 125.35 96.74 131.09 90.99C131.25 90.83 131.44 90.64 131.54 90.51C137.67 84.16 141.12 75.82 141.28 67.07C141.28 66.81 141.31 66.59 141.31 66.34C141.31 66.02 141.31 65.77 141.31 65.67L141.33 65.68ZM124.06 83.37C119.97 87.46 114.45 90.08 108.29 90.39C108.07 87.8 107.65 84.8 106.69 81.9H107.07C111.64 81.9 115.15 80.43 117.99 77.69C120.8 74.05 122.56 70.38 122.56 65.81C122.56 62.17 120.74 58.05 118.03 55.21C115.32 52.4 111.36 50.48 107.08 50.45V50.64C102.51 50.64 98.81 52.4 95.97 55.24H95.91C95.59 55.56 95.3 55.88 95.02 56.2L98.88 59.14L81.99 64.82L83.24 47L87.65 50.54C93.3 41.86 91.42 30.07 83.08 23.56C74.2 16.66 61.4 18.29 54.5 27.17C47.7 36.17 49.23 48.82 58.08 55.71C61.27 57.88 64.72 59.54 68.3 60.98C75.77 63.95 83.53 65.16 89.72 70.69C101.44 80.78 103.42 98.37 93.74 110.83C83.87 123.63 65.45 126.12 52.55 116.13C44.02 109.62 40.03 99.34 41.25 89.37C39.01 90.07 36.72 90.42 33.97 90.42C27.58 90.42 21.45 87.61 17.08 83.24L17.27 83.11C12.9 78.74 10.18 73.12 10.18 65.8C10.18 59.41 12.86 53.32 17.2 48.94L17.17 49.16C21.19 45.17 26.56 42.55 32.56 42.17C32.78 44.66 33.17 47.5 34.06 50.28C34.09 50.41 34.12 50.5 34.16 50.63H33.9C30.26 50.63 25.69 52.39 22.95 55.2C20.2 58.04 18.67 62.13 18.67 65.8C18.67 70.37 20.43 74.01 23.24 77.68H23.27C26.11 80.43 30.26 81.86 33.93 81.89C38.5 81.89 42.33 80.17 45.17 77.32H45.36C45.65 77.03 45.97 76.71 46.25 76.39L42.29 73.29L59.12 67.8L58 85.55L53.37 81.94C47.78 90.75 49.67 102.53 58.16 108.98C66.97 115.75 79.74 114.12 86.64 105.24C93.41 96.43 91.78 83.66 82.9 76.76C82.01 76.09 80.98 75.48 79.96 74.91C71.15 70.34 60.67 68.94 52.56 62.97C39.66 52.98 37.33 34.52 47.32 21.62C57.19 8.82 75.67 6.45 88.57 16.45C97 23 100.96 33.24 99.78 43.17C102.05 42.47 104.22 42.08 106.96 42.08C113.35 42.08 119.6 44.67 123.98 49.04L123.92 48.91C128.29 53.28 130.98 59.38 130.98 65.77C130.98 73.08 128.27 78.7 123.92 83.08L124.05 83.34L124.06 83.37Z" fill="white"/>
</svg>
