<svg width="1245" height="777" viewBox="0 0 1245 777" fill="none" xmlns="http://www.w3.org/2000/svg">
<path opacity="0.05" d="M1245 278.043C1243.59 197.955 1211.79 122.883 1154.97 66.4696C1153.56 65.0615 1152.42 63.9174 1151.62 63.3893C1101.23 14.8083 1036.05 -15.2908 966.542 -22.0675C948.836 -103.3 903.557 -175.203 838.281 -225.808C775.559 -274.389 700.769 -300 622.016 -300C512.077 -300 410.772 -250.275 343.822 -163.41C311.492 -121.518 288.676 -72.9367 277.401 -21.8034C208.249 -15.0267 143.237 14.9843 93.7296 63.0373C92.5844 64.1814 91.1749 65.3255 90.0297 66.3817C33.7391 122.883 1.67374 197.603 0.264273 276.899C-2.32458e-06 279.188 0 281.124 0 283.324C0 285.524 -2.32458e-06 287.548 0.264273 289.221C1.67374 366.492 32.0654 440.156 85.4489 495.514C86.8584 497.186 88.5321 498.858 89.9416 500.53C140.594 551.135 206.927 582.291 277.841 588.803C295.283 670.564 340.827 742.819 406.984 793.336C469.176 841.389 543.438 867 621.839 867C731.778 867 833.347 817.011 900.561 729.882C932.627 688.606 955.443 639.937 966.366 589.067C1037.54 582.643 1104.23 551.399 1154.79 500.794C1156.2 499.386 1157.88 497.714 1158.76 496.57C1212.76 440.684 1243.15 367.285 1244.56 290.277C1244.56 287.988 1244.82 286.052 1244.82 283.852C1244.82 281.036 1244.82 278.835 1244.82 277.955L1245 278.043ZM1092.87 433.731C1056.84 469.727 1008.21 492.785 953.945 495.514C952.007 472.719 948.307 446.317 939.85 420.794H943.198C983.456 420.794 1014.38 407.857 1039.39 383.742C1064.15 351.707 1079.65 319.408 1079.65 279.188C1079.65 247.152 1063.62 210.892 1039.75 185.898C1015.87 161.167 980.989 144.27 943.286 144.006V145.678C903.028 145.678 870.434 161.167 845.416 186.162H844.888C842.069 188.978 839.514 191.794 837.047 194.611L871.051 220.485L722.264 270.475L733.275 113.642L772.124 144.798C821.896 68.4059 805.334 -35.3568 731.866 -92.6507C653.64 -153.377 540.883 -139.031 480.1 -60.8794C420.197 18.3287 433.675 129.66 511.637 190.298C539.738 209.396 570.13 224.006 601.666 236.679C667.471 262.818 735.83 273.467 790.359 322.136C893.602 410.937 911.044 565.745 825.772 675.404C738.825 788.056 576.56 809.97 462.922 722.049C387.78 664.755 352.631 574.282 363.378 486.537C343.646 492.698 323.473 495.778 299.247 495.778C242.957 495.778 188.957 471.047 150.461 432.587L152.134 431.443C113.638 392.983 89.6774 343.522 89.6774 279.1C89.6774 222.862 113.286 169.264 151.518 130.716L151.253 132.652C186.666 97.5369 233.972 74.4785 286.827 71.1341C288.765 93.0484 292.2 118.043 300.04 142.509C300.305 143.654 300.569 144.446 300.921 145.59H298.631C266.565 145.59 226.308 161.079 202.17 185.81C177.945 210.804 164.467 246.8 164.467 279.1C164.467 319.32 179.971 351.355 204.725 383.654H204.989C230.007 407.857 266.565 420.442 298.895 420.706C339.153 420.706 372.892 405.568 397.91 380.486H399.584C402.139 377.934 404.958 375.117 407.424 372.301L372.54 345.018L520.798 296.701L510.932 452.917L470.145 421.146C420.902 498.682 437.551 602.357 512.341 659.122C589.95 718.705 702.443 704.359 763.226 626.207C822.865 548.671 808.506 436.284 730.28 375.557C722.44 369.661 713.367 364.292 704.381 359.276C626.772 319.056 534.452 306.734 463.01 254.193C349.372 166.272 328.846 3.80719 416.85 -109.724C503.796 -222.376 666.59 -243.234 780.228 -155.225C854.489 -97.5792 889.374 -7.45795 878.979 79.935C898.976 73.7744 918.092 70.342 942.229 70.342C998.519 70.342 1053.58 93.1364 1092.16 131.596L1091.63 130.452C1130.13 168.912 1153.83 222.598 1153.83 278.835C1153.83 343.17 1129.95 392.631 1091.63 431.179L1092.78 433.467L1092.87 433.731Z" fill="white"/>
</svg>
